<svg width="32" height="36" viewBox="0 0 32 36" fill="none" xmlns="http://www.w3.org/2000/svg">
<path d="M20.7234 3.81838C22.6911 5.9309 23.9227 8.70387 24.2121 11.6735C24.5015 14.643 23.8311 17.6291 22.3132 20.1322C22.5782 20.369 22.799 20.6295 23.1082 20.8662C23.5498 21.2451 24.146 21.7186 24.8967 22.2632C25.6475 22.8315 26.1333 23.1866 26.3541 23.3761C27.2815 24.1101 27.9661 24.7257 28.4298 25.2229C29.1364 25.9806 29.7546 26.762 30.2846 27.5907C30.8366 28.4194 31.2562 29.2244 31.5874 30.0531C31.8965 30.8818 32.0511 31.6632 31.9849 32.4209C31.9407 33.1786 31.6757 33.8179 31.1899 34.3388C30.7041 34.8597 30.1079 35.1438 29.4013 35.1912C28.7168 35.2385 27.9661 35.0965 27.2153 34.7413C26.4424 34.4098 25.6696 33.9363 24.9188 33.3443C24.146 32.7761 23.4173 32.1131 22.7107 31.3554C22.247 30.8582 21.6729 30.1242 21.0104 29.1534C20.7896 28.8456 20.4584 28.3247 19.9726 27.5907C19.4868 26.833 19.0893 26.241 18.736 25.7438C18.3827 25.2703 18.0957 24.9151 17.7645 24.5599C15.4725 25.8468 12.8574 26.3157 10.2997 25.8983C7.74198 25.481 5.37528 24.1992 3.54406 22.2395C-1.18135 17.1489 -1.18135 8.88538 3.54406 3.81838C4.67158 2.6079 6.01057 1.64761 7.48445 0.992423C8.95833 0.337236 10.5382 0 12.1337 0C13.7292 0 15.3091 0.337236 16.783 0.992423C18.2569 1.64761 19.5958 2.6079 20.7234 3.81838ZM17.6099 18.8773C19.0524 17.3192 19.862 15.2127 19.862 13.0171C19.862 10.8216 19.0524 8.71505 17.6099 7.15692C16.893 6.38588 16.0412 5.77413 15.1034 5.35672C14.1656 4.93931 13.1601 4.72445 12.1448 4.72445C11.1294 4.72445 10.1239 4.93931 9.18613 5.35672C8.24832 5.77413 7.39654 6.38588 6.67961 7.15692C5.96056 7.92567 5.39005 8.83902 5.00078 9.84462C4.61151 10.8502 4.41113 11.9283 4.41113 13.0171C4.41113 14.1059 4.61151 15.184 5.00078 16.1896C5.39005 17.1952 5.96056 18.1086 6.67961 18.8773C7.39654 19.6484 8.24832 20.2601 9.18613 20.6775C10.1239 21.0949 11.1294 21.3098 12.1448 21.3098C13.1601 21.3098 14.1656 21.0949 15.1034 20.6775C16.0412 20.2601 16.893 19.6484 17.6099 18.8773Z" fill="black" fill-opacity="0.3"/>
</svg>
